<svg width="382" height="182" viewBox="0 0 382 182" fill="none" xmlns="http://www.w3.org/2000/svg">
<mask id="mask0_12_1212" style="mask-type:luminance" maskUnits="userSpaceOnUse" x="0" y="0" width="382" height="182">
<path d="M0.0613403 0H381.333V182H0.0613403V0Z" fill="white"/>
</mask>
<g mask="url(#mask0_12_1212)">
<g opacity="0.35">
<path fill-rule="evenodd" clip-rule="evenodd" d="M197.551 36.5582C198.354 34.1743 197.028 31.648 194.593 30.9166C192.154 30.1836 189.527 31.5222 188.726 33.9032C187.925 36.2872 189.25 38.8135 191.685 39.5448C194.123 40.2779 196.751 38.9392 197.551 36.5582Z" stroke="#A6A6A6" stroke-width="0.5" stroke-miterlimit="10"/>
<path fill-rule="evenodd" clip-rule="evenodd" d="M201.117 36.5578C203.064 30.781 199.848 24.6531 193.933 22.8773C188.021 21.1002 181.647 24.347 179.7 30.1238C177.752 35.9006 180.968 42.0285 186.884 43.8043C192.795 45.5814 199.17 42.3345 201.117 36.5578Z" stroke="#A6A6A6" stroke-width="0.5" stroke-miterlimit="10"/>
<path fill-rule="evenodd" clip-rule="evenodd" d="M204.686 36.56C207.777 27.3858 202.669 17.6592 193.28 14.8393C183.891 12.0194 173.771 17.1716 170.68 26.3457C167.589 35.5199 172.697 45.2465 182.086 48.0664C191.475 50.8863 201.595 45.7341 204.686 36.56Z" stroke="#A6A6A6" stroke-width="0.5" stroke-miterlimit="10"/>
<path fill-rule="evenodd" clip-rule="evenodd" d="M208.251 36.5638C212.485 23.9951 205.489 10.6686 192.625 6.8029C179.76 2.93723 165.893 9.99764 161.657 22.5646C157.423 35.1333 164.42 48.4598 177.284 52.3255C190.148 56.1912 204.015 49.1307 208.251 36.5638Z" stroke="#A6A6A6" stroke-width="0.5" stroke-miterlimit="10"/>
<path fill-rule="evenodd" clip-rule="evenodd" d="M211.819 36.5628C217.198 20.5984 208.307 3.6715 191.969 -1.23532C175.628 -6.14381 158.016 2.82191 152.636 18.7863C147.256 34.7507 156.147 51.6776 172.486 56.5844C188.824 61.4912 206.438 52.5272 211.819 36.5628Z" stroke="#A6A6A6" stroke-width="0.5" stroke-miterlimit="10"/>
<path fill-rule="evenodd" clip-rule="evenodd" d="M215.386 36.5662C221.909 17.2073 211.13 -3.31957 191.317 -9.27213C171.502 -15.2247 150.142 -4.3524 143.619 15.0065C137.098 34.3654 147.875 54.8922 167.69 60.8447C187.503 66.7973 208.865 55.925 215.386 36.5662Z" stroke="#A6A6A6" stroke-width="0.5" stroke-miterlimit="10"/>
<path fill-rule="evenodd" clip-rule="evenodd" d="M218.949 36.5645C226.618 13.8098 213.945 -10.3173 190.656 -17.3157C167.365 -24.311 142.259 -11.5335 134.593 11.2228C126.924 33.9774 139.598 58.1046 162.886 65.1029C186.177 72.0983 211.283 59.3207 218.949 36.5645Z" stroke="#A6A6A6" stroke-width="0.5" stroke-miterlimit="10"/>
<path fill-rule="evenodd" clip-rule="evenodd" d="M222.513 36.566C231.324 10.4169 216.765 -17.3131 189.997 -25.3514C163.231 -33.3925 134.379 -18.7067 125.567 7.44535C116.756 33.5945 131.317 61.3216 158.082 69.3627C184.848 77.4038 213.701 62.718 222.513 36.566Z" stroke="#A6A6A6" stroke-width="0.5" stroke-miterlimit="10"/>
<path fill-rule="evenodd" clip-rule="evenodd" d="M226.082 36.5662C236.037 7.01967 219.585 -24.3091 189.345 -33.3913C159.102 -42.4753 126.505 -25.8841 116.551 3.66235C106.596 33.2089 123.045 64.5359 153.287 73.6199C183.526 82.7051 216.127 66.1127 226.082 36.5662Z" stroke="#A6A6A6" stroke-width="0.5" stroke-miterlimit="10"/>
<path fill-rule="evenodd" clip-rule="evenodd" d="M229.649 36.569C240.748 3.62963 222.406 -31.3007 188.691 -41.4287C154.976 -51.5567 118.628 -33.0561 107.531 -0.115147C96.4315 32.8242 114.772 67.7545 148.488 77.8826C182.204 88.0106 218.547 69.5112 229.649 36.569Z" stroke="#A6A6A6" stroke-width="0.5" stroke-miterlimit="10"/>
<path d="M233.212 36.5699C245.455 0.23315 225.225 -38.2942 188.034 -49.4679C150.843 -60.6417 110.748 -40.2329 98.5069 -3.89907C86.2639 32.4377 106.494 70.965 143.685 82.1388C180.876 93.3125 220.966 72.905 233.21 36.5682" stroke="#A6A6A6" stroke-width="0.5" stroke-miterlimit="10"/>
<path d="M236.779 36.574C250.168 -3.15558 228.045 -45.2862 187.379 -57.5011C146.71 -69.7177 102.873 -47.4019 89.4848 -7.67233C76.0994 32.0589 98.2201 74.1879 138.889 86.4045C179.555 98.6194 223.392 76.3081 236.782 36.5757" stroke="#A6A6A6" stroke-width="0.5" stroke-miterlimit="10"/>
<path fill-rule="evenodd" clip-rule="evenodd" d="M240.349 36.572C254.881 -6.55498 230.868 -52.2826 186.724 -65.5449C142.58 -78.8073 94.9972 -54.5832 80.4649 -11.4563C65.9329 31.6707 89.9454 77.3983 134.089 90.6607C178.231 103.921 225.815 79.7019 240.349 36.572Z" stroke="#A6A6A6" stroke-width="0.5" stroke-miterlimit="10"/>
<path fill-rule="evenodd" clip-rule="evenodd" d="M243.909 36.5734C259.584 -9.94804 233.681 -59.2773 186.064 -73.5837C138.446 -87.8871 87.1154 -61.7595 71.4411 -15.238C55.7667 31.2834 81.6698 80.6127 129.287 94.9191C176.903 109.225 228.234 83.0978 243.909 36.5734Z" stroke="#A6A6A6" stroke-width="0.5" stroke-miterlimit="10"/>
<path d="M247.48 36.5741C264.3 -13.3431 236.507 -66.2739 185.412 -81.6203C134.318 -96.9695 79.2409 -68.9335 62.4201 -19.0164C45.5994 30.9008 73.3944 83.8288 124.488 99.178C175.579 114.526 230.658 86.4942 247.477 36.5724" stroke="#A6A6A6" stroke-width="0.5" stroke-miterlimit="10"/>
<path d="M251.043 36.5763C269.007 -16.7383 239.322 -73.2679 184.754 -89.6583C130.184 -106.05 71.3618 -76.1091 53.3988 -22.7974C35.4343 30.5172 65.1211 87.0438 119.69 103.439C174.256 119.832 233.082 89.8896 251.046 36.5779" stroke="#A6A6A6" stroke-width="0.5" stroke-miterlimit="10"/>
<path d="M254.609 36.5757C273.718 -20.1317 242.143 -80.2629 184.1 -97.699C126.054 -115.137 63.4858 -83.2873 44.379 -26.5782C25.2723 30.1308 56.8452 90.2603 114.89 107.698C172.933 125.134 235.504 93.2864 254.611 36.5774" stroke="#A6A6A6" stroke-width="0.5" stroke-miterlimit="10"/>
<path d="M258.173 36.5793C278.426 -23.5255 244.959 -87.2553 183.44 -105.737C121.922 -124.219 55.605 -90.463 35.3519 -30.3582C15.0987 29.7466 48.5661 93.4764 110.084 111.958C171.601 130.438 237.92 96.6841 258.171 36.5776" stroke="#A6A6A6" stroke-width="0.5" stroke-miterlimit="10"/>
<path fill-rule="evenodd" clip-rule="evenodd" d="M261.74 36.5805C283.136 -26.9188 247.781 -94.2485 182.786 -113.773C117.791 -133.298 47.7282 -97.6366 26.3329 -34.1373C4.93744 29.362 40.2925 96.6918 105.287 116.216C170.28 135.739 240.342 100.078 261.74 36.5805Z" stroke="#A6A6A6" stroke-width="0.5" stroke-miterlimit="10"/>
<path fill-rule="evenodd" clip-rule="evenodd" d="M265.304 36.5808C287.845 -30.3143 250.595 -101.244 182.127 -121.813C113.657 -142.384 39.847 -104.811 17.3093 -37.9173C-5.22992 28.9794 32.017 99.9079 100.485 120.477C168.953 141.045 242.762 103.476 265.304 36.5808Z" stroke="#A6A6A6" stroke-width="0.5" stroke-miterlimit="10"/>
<path d="M268.87 36.5825C292.555 -33.707 253.417 -108.237 181.474 -129.852C109.526 -151.465 31.97 -111.987 8.28992 -41.6987C-15.3944 28.5908 23.7431 103.121 95.6893 124.737C167.631 146.35 245.189 106.874 268.873 36.5842" stroke="#A6A6A6" stroke-width="0.5" stroke-miterlimit="10"/>
<path fill-rule="evenodd" clip-rule="evenodd" d="M272.44 36.5831C297.271 -37.1021 256.24 -115.236 180.821 -137.888C105.4 -160.546 24.098 -119.16 -0.731114 -45.4772C-25.5591 28.2098 15.4702 106.339 90.8914 128.996C166.309 151.652 247.612 110.27 272.44 36.5831Z" stroke="#A6A6A6" stroke-width="0.5" stroke-miterlimit="10"/>
<path fill-rule="evenodd" clip-rule="evenodd" d="M276.003 36.586C301.977 -40.4938 259.058 -122.227 180.161 -145.927C101.263 -169.627 16.2161 -126.336 -9.75688 -49.2562C-35.7298 27.8235 7.18982 109.554 86.0861 133.257C164.98 156.958 250.03 113.669 276.003 36.586Z" stroke="#A6A6A6" stroke-width="0.5" stroke-miterlimit="10"/>
<path fill-rule="evenodd" clip-rule="evenodd" d="M279.572 36.5852C306.689 -43.892 261.879 -129.224 179.509 -153.968C97.1352 -178.714 8.34171 -133.514 -18.7736 -53.0402C-45.8903 27.4369 -1.0788 112.766 81.2904 137.513C163.661 162.257 252.455 117.062 279.572 36.5852Z" stroke="#A6A6A6" stroke-width="0.5" stroke-miterlimit="10"/>
<path fill-rule="evenodd" clip-rule="evenodd" d="M283.136 36.5893C311.397 -47.2807 264.697 -136.214 178.85 -162.001C92.9995 -187.79 0.460973 -140.685 -27.798 -56.8135C-56.0571 27.0581 -9.35932 115.99 76.4882 141.777C162.331 167.565 254.875 120.464 283.136 36.5893Z" stroke="#A6A6A6" stroke-width="0.5" stroke-miterlimit="10"/>
<path fill-rule="evenodd" clip-rule="evenodd" d="M286.705 36.5885C316.11 -50.6788 267.517 -143.211 178.197 -170.042C88.874 -196.875 -7.41335 -147.864 -36.8172 -60.5991C-66.2227 26.6683 -17.6305 119.201 71.6924 146.033C161.011 172.867 257.301 123.858 286.705 36.5885Z" stroke="#A6A6A6" stroke-width="0.5" stroke-miterlimit="10"/>
<path d="M290.265 36.59C320.816 -54.0702 270.333 -150.204 177.538 -178.081C84.7393 -205.959 -15.2945 -155.04 -45.8422 -64.3779C-76.3899 26.284 -25.91 122.416 66.8883 150.295C159.684 178.172 259.716 127.255 290.268 36.5917" stroke="#A6A6A6" stroke-width="0.5" stroke-miterlimit="10"/>
<path fill-rule="evenodd" clip-rule="evenodd" d="M293.835 36.59C325.529 -57.4676 273.156 -157.203 176.883 -186.123C80.608 -215.044 -23.1707 -162.219 -54.8622 -68.1598C-86.5564 25.8978 -34.182 125.63 62.0892 154.553C158.358 183.474 262.139 130.651 293.835 36.59Z" stroke="#A6A6A6" stroke-width="0.5" stroke-miterlimit="10"/>
<path fill-rule="evenodd" clip-rule="evenodd" d="M297.4 36.5922C330.236 -60.8599 275.975 -164.195 176.226 -194.158C76.4753 -224.125 -31.0499 -169.392 -63.8863 -71.9396C-96.7225 25.5124 -42.4606 128.845 57.2875 158.81C157.035 188.776 264.562 134.047 297.4 36.5922Z" stroke="#A6A6A6" stroke-width="0.5" stroke-miterlimit="10"/>
<path fill-rule="evenodd" clip-rule="evenodd" d="M300.967 36.5924C334.949 -64.2554 278.794 -171.191 175.572 -202.198C72.3465 -233.206 -38.9276 -176.566 -72.9063 -75.7197C-106.887 25.1299 -50.7326 132.061 52.4883 163.071C155.709 194.08 266.984 137.445 300.967 36.5924Z" stroke="#A6A6A6" stroke-width="0.5" stroke-miterlimit="10"/>
<path fill-rule="evenodd" clip-rule="evenodd" d="M304.532 36.5942C339.657 -67.6481 281.614 -178.184 174.916 -210.236C68.2159 -242.29 -46.8022 -183.74 -81.9259 -79.501C-117.051 24.7413 -59.0067 135.274 47.6923 167.331C154.387 199.385 269.405 140.839 304.532 36.5942Z" stroke="#A6A6A6" stroke-width="0.5" stroke-miterlimit="10"/>
<path fill-rule="evenodd" clip-rule="evenodd" d="M308.099 36.5971C344.371 -71.041 284.433 -185.177 174.261 -218.271C64.0837 -251.367 -54.6792 -190.912 -90.9468 -83.2755C-127.216 24.3642 -67.2821 138.494 42.8938 171.594C153.064 204.686 271.83 144.237 308.099 36.5971Z" stroke="#A6A6A6" stroke-width="0.5" stroke-miterlimit="10"/>
</g>
</g>
</svg>
